<svg width="1097" height="1097" viewBox="0 0 1097 1097" fill="none" xmlns="http://www.w3.org/2000/svg">
<path fill-rule="evenodd" clip-rule="evenodd" d="M548.5 1097C851.428 1097 1097 851.428 1097 548.5C1097 245.572 851.428 0 548.5 0C245.572 0 0 245.572 0 548.5C0 851.428 245.572 1097 548.5 1097ZM744.538 229.69C762.111 212.116 790.604 212.116 808.177 229.69L868.285 289.797C885.858 307.371 885.858 335.864 868.285 353.437L673.235 548.488L868.285 743.538C885.858 761.111 885.858 789.604 868.285 807.177L808.177 867.285C790.604 884.859 762.111 884.859 744.538 867.285L549.487 672.235L354.437 867.285C336.863 884.859 308.371 884.859 290.797 867.285L230.69 807.177C213.116 789.604 213.116 761.111 230.69 743.538L425.74 548.488L230.69 353.437C213.116 335.864 213.116 307.371 230.69 289.798L290.797 229.69C308.371 212.116 336.863 212.116 354.437 229.69L549.487 424.74L744.538 229.69Z" fill="#F8EDED"/>
</svg>
