<svg width="1688" height="1005" viewBox="0 0 1688 1005" fill="none" xmlns="http://www.w3.org/2000/svg">
<path d="M528.022 897.171C632.974 982.105 695.594 962.179 717.351 967.877C739.107 973.575 655.823 1029.4 467.675 919.186C342.125 845.64 255.815 767.153 162.834 858.58C69.854 950.006 -4.98663 998.158 24.5292 897.171C101.882 632.512 325.83 733.542 528.022 897.171Z" fill="#FF8225" stroke="#F8EDED" stroke-width="35"/>
<path d="M1555.73 340.583L1008.98 887.329L851.64 940.164L758.789 971.344L748.429 974.823C726.195 982.289 705.01 961.104 712.476 938.869L747.135 835.658L799.97 678.317L1346.72 131.571L1377.02 101.268L1425.25 53.033C1454.54 23.7437 1502.03 23.7437 1531.32 53.033L1634.27 155.979C1663.56 185.268 1663.56 232.755 1634.27 262.045L1586.03 310.28L1555.73 340.583Z" fill="#FF8225"/>
<path d="M1346.72 131.571L799.97 678.317M1346.72 131.571L1415.35 200.206M1346.72 131.571L1377.02 101.268M1555.73 340.583L1008.98 887.329M1555.73 340.583L1485.54 270.394M1555.73 340.583L1586.03 310.28M1008.98 887.329C1038.92 821.358 1045.98 792.81 938.793 817.14M1008.98 887.329L851.64 940.164M799.97 678.317C887.6 630.995 882.463 670.537 868.605 746.951M799.97 678.317L747.135 835.658M1415.35 200.206L868.605 746.951M1415.35 200.206L1485.54 270.394M868.605 746.951C842.315 834.941 868.808 838.485 938.793 817.14M1485.54 270.394L938.793 817.14M1377.02 101.268L1425.25 53.033C1454.54 23.7437 1502.03 23.7437 1531.32 53.033L1634.27 155.979C1663.56 185.268 1663.56 232.755 1634.27 262.045L1586.03 310.28M1377.02 101.268L1586.03 310.28M747.135 835.658C832.086 845.889 764.228 928.25 851.64 940.164M747.135 835.658L712.476 938.869V938.869C705.01 961.104 726.195 982.289 748.429 974.823L758.789 971.344L851.64 940.164" stroke="#F8EDED" stroke-width="35"/>
</svg>
